# xmcd
#
# Track frame offsets: 
#        150
#        9920
#        41884
#        51509
#        75121
#        88783
#        106304
#        118316
#        128410
#        140381
#        159766
#        172962
#        184957
#        196712
#        216170
#        239232
#        251064
#
# Disc length: 3606 seconds
#
# Revision: 0
# Processed by: cddbd v1.5.1PL0 Copyright (c) Steve Scherf et al.
# Submitted via: ExactAudioCopy v0.95a5
#
DISCID=e30e1411
DTITLE=Gamble Rogers - Good Causes - The Southern Gothic Art Songs of 
DTITLE=Gamble Rogers
DYEAR=1900
DGENRE=Country
TTITLE0=The Masterbuilders
TTITLE1=Good Causes
TTITLE2=Long Legged Woman
TTITLE3=Bed to Breakfast
TTITLE4=Home Grown Lucifer (Habersham County Mephistopheles)
TTITLE5=Blood Mountain
TTITLE6=Jury Man Blues
TTITLE7=Alabaster Sally
TTITLE8=Mama Blue
TTITLE9=Dance Hall Gals
TTITLE10=Saturday's Luck
TTITLE11=Color Becoming Grace
TTITLE12=Black Label Blues (Jack Daniel's Blues)
TTITLE13=Doris
TTITLE14=Cairo Lament
TTITLE15=The Girl from Stoney Lonesome
TTITLE16=Margaret and The Dutchman
EXTD=
EXTT0=
EXTT1=
EXTT2=
EXTT3=
EXTT4=
EXTT5=
EXTT6=
EXTT7=
EXTT8=
EXTT9=
EXTT10=
EXTT11=
EXTT12=
EXTT13=
EXTT14=
EXTT15=
EXTT16=
PLAYORDER=
